<svg xmlns="http://www.w3.org/2000/svg" viewBox="0 0 1024 1024" width="1024" height="1024"><defs><linearGradient id="bg" x1="0" y1="0" x2="1" y2="1"><stop offset="0" stop-color="#F7B500"/><stop offset="1" stop-color="#D96C00"/></linearGradient><linearGradient id="fl" x1="0" y1="0" x2="0" y2="1"><stop offset="0" stop-color="#154377"/><stop offset="1" stop-color="#0B2A4F"/></linearGradient></defs><rect width="1024" height="1024" fill="url(#bg)"/>
<path d="M452 236 h120 v206 L726 742 q20 56 -40 56 H338 q-60 0 -40 -56 L452 442 Z" fill="url(#fl)" stroke="#0B2A4F" stroke-width="18" stroke-linejoin="round"/>
<rect x="420" y="214" width="184" height="40" rx="20" fill="#0B2A4F"/>
<rect x="400" y="556" width="96" height="92" rx="20" fill="rgba(255,255,255,.14)"/><text x="448" y="626" font-family="Inter, sans-serif" font-weight="800" font-size="76" fill="#FFFFFF" text-anchor="middle">+</text><rect x="528" y="556" width="96" height="92" rx="20" fill="rgba(255,255,255,.14)"/><text x="576" y="626" font-family="Inter, sans-serif" font-weight="800" font-size="76" fill="#FFFFFF" text-anchor="middle">−</text><rect x="400" y="668" width="96" height="92" rx="20" fill="rgba(255,255,255,.14)"/><text x="448" y="738" font-family="Inter, sans-serif" font-weight="800" font-size="76" fill="#FFFFFF" text-anchor="middle">×</text><rect x="528" y="668" width="96" height="92" rx="20" fill="#E30613"/><text x="576" y="738" font-family="Inter, sans-serif" font-weight="800" font-size="76" fill="#FFFFFF" text-anchor="middle">=</text></svg>